<mxfile host="app.diagrams.net" modified="2023-08-30T21:46:57.212Z" agent="Mozilla/5.0 (Windows NT 10.0; Win64; x64) AppleWebKit/537.36 (KHTML, like Gecko) Chrome/116.0.0.0 Safari/537.36" version="21.7.1" etag="xc_Vs9Bf7tOR61JRvwgU" type="github">
  <diagram name="PÃ¡gina-1" id="zKv2x6dJgtATqgKXtKyK">
    <mxGraphModel>
      <root>
        <mxCell id="0" />
        <mxCell id="1" parent="0" />
      </root>
    </mxGraphModel>
  </diagram>
</mxfile>
